P3
30 10
255
0 0 255
0 0 255
0 0 255
0 0 255
0 0 255
0 0 255
0 0 255
0 0 255
0 0 255
0 0 255
8 0 246
8 0 246
8 0 246
8 0 246
8 0 246
8 0 246
8 0 246
8 0 246
8 0 246
8 0 246
17 0 238
17 0 238
17 0 238
17 0 238
17 0 238
17 0 238
17 0 238
17 0 238
17 0 238
17 0 238
25 0 229
25 0 229
25 0 229
25 0 229
25 0 229
25 0 229
25 0 229
25 0 229
25 0 229
25 0 229
34 0 221
34 0 221
34 0 221
34 0 221
34 0 221
34 0 221
34 0 221
34 0 221
34 0 221
34 0 221
42 0 212
42 0 212
42 0 212
42 0 212
42 0 212
42 0 212
42 0 212
42 0 212
42 0 212
42 0 212
51 0 204
51 0 204
51 0 204
51 0 204
51 0 204
51 0 204
51 0 204
51 0 204
51 0 204
51 0 204
59 0 195
59 0 195
59 0 195
59 0 195
59 0 195
59 0 195
59 0 195
59 0 195
59 0 195
59 0 195
68 0 187
68 0 187
68 0 187
68 0 187
68 0 187
68 0 187
68 0 187
68 0 187
68 0 187
68 0 187
76 0 178
76 0 178
76 0 178
76 0 178
76 0 178
76 0 178
76 0 178
76 0 178
76 0 178
76 0 178
85 0 170
85 0 170
85 0 170
85 0 170
85 0 170
85 0 170
85 0 170
85 0 170
85 0 170
85 0 170
93 0 161
93 0 161
93 0 161
93 0 161
93 0 161
93 0 161
93 0 161
93 0 161
93 0 161
93 0 161
102 0 153
102 0 153
102 0 153
102 0 153
102 0 153
102 0 153
102 0 153
102 0 153
102 0 153
102 0 153
110 0 144
110 0 144
110 0 144
110 0 144
110 0 144
110 0 144
110 0 144
110 0 144
110 0 144
110 0 144
119 0 136
119 0 136
119 0 136
119 0 136
119 0 136
119 0 136
119 0 136
119 0 136
119 0 136
119 0 136
127 0 127
127 0 127
127 0 127
127 0 127
127 0 127
127 0 127
127 0 127
127 0 127
127 0 127
127 0 127
136 0 119
136 0 119
136 0 119
136 0 119
136 0 119
136 0 119
136 0 119
136 0 119
136 0 119
136 0 119
144 0 110
144 0 110
144 0 110
144 0 110
144 0 110
144 0 110
144 0 110
144 0 110
144 0 110
144 0 110
153 0 102
153 0 102
153 0 102
153 0 102
153 0 102
153 0 102
153 0 102
153 0 102
153 0 102
153 0 102
161 0 93
161 0 93
161 0 93
161 0 93
161 0 93
161 0 93
161 0 93
161 0 93
161 0 93
161 0 93
170 0 85
170 0 85
170 0 85
170 0 85
170 0 85
170 0 85
170 0 85
170 0 85
170 0 85
170 0 85
178 0 76
178 0 76
178 0 76
178 0 76
178 0 76
178 0 76
178 0 76
178 0 76
178 0 76
178 0 76
187 0 68
187 0 68
187 0 68
187 0 68
187 0 68
187 0 68
187 0 68
187 0 68
187 0 68
187 0 68
195 0 59
195 0 59
195 0 59
195 0 59
195 0 59
195 0 59
195 0 59
195 0 59
195 0 59
195 0 59
204 0 51
204 0 51
204 0 51
204 0 51
204 0 51
204 0 51
204 0 51
204 0 51
204 0 51
204 0 51
212 0 42
212 0 42
212 0 42
212 0 42
212 0 42
212 0 42
212 0 42
212 0 42
212 0 42
212 0 42
221 0 34
221 0 34
221 0 34
221 0 34
221 0 34
221 0 34
221 0 34
221 0 34
221 0 34
221 0 34
229 0 25
229 0 25
229 0 25
229 0 25
229 0 25
229 0 25
229 0 25
229 0 25
229 0 25
229 0 25
238 0 17
238 0 17
238 0 17
238 0 17
238 0 17
238 0 17
238 0 17
238 0 17
238 0 17
238 0 17
246 0 8
246 0 8
246 0 8
246 0 8
246 0 8
246 0 8
246 0 8
246 0 8
246 0 8
246 0 8
