P3
30 10
255
255 0 0
246 0 8
238 0 17
229 0 25
221 0 34
212 0 42
204 0 51
195 0 59
187 0 68
178 0 76
170 0 85
161 0 93
153 0 102
144 0 110
136 0 119
127 0 127
119 0 136
110 0 144
102 0 153
93 0 161
85 0 170
76 0 178
68 0 187
59 0 195
51 0 204
42 0 212
34 0 221
25 0 229
17 0 238
8 0 246
255 0 0
246 0 8
238 0 17
229 0 25
221 0 34
212 0 42
204 0 51
195 0 59
187 0 68
178 0 76
170 0 85
161 0 93
153 0 102
144 0 110
136 0 119
127 0 127
119 0 136
110 0 144
102 0 153
93 0 161
85 0 170
76 0 178
68 0 187
59 0 195
51 0 204
42 0 212
34 0 221
25 0 229
17 0 238
8 0 246
255 0 0
246 0 8
238 0 17
229 0 25
221 0 34
212 0 42
204 0 51
195 0 59
187 0 68
178 0 76
170 0 85
161 0 93
153 0 102
144 0 110
136 0 119
127 0 127
119 0 136
110 0 144
102 0 153
93 0 161
85 0 170
76 0 178
68 0 187
59 0 195
51 0 204
42 0 212
34 0 221
25 0 229
17 0 238
8 0 246
255 0 0
246 0 8
238 0 17
229 0 25
221 0 34
212 0 42
204 0 51
195 0 59
187 0 68
178 0 76
170 0 85
161 0 93
153 0 102
144 0 110
136 0 119
127 0 127
119 0 136
110 0 144
102 0 153
93 0 161
85 0 170
76 0 178
68 0 187
59 0 195
51 0 204
42 0 212
34 0 221
25 0 229
17 0 238
8 0 246
255 0 0
246 0 8
238 0 17
229 0 25
221 0 34
212 0 42
204 0 51
195 0 59
187 0 68
178 0 76
170 0 85
161 0 93
153 0 102
144 0 110
136 0 119
127 0 127
119 0 136
110 0 144
102 0 153
93 0 161
85 0 170
76 0 178
68 0 187
59 0 195
51 0 204
42 0 212
34 0 221
25 0 229
17 0 238
8 0 246
255 0 0
246 0 8
238 0 17
229 0 25
221 0 34
212 0 42
204 0 51
195 0 59
187 0 68
178 0 76
170 0 85
161 0 93
153 0 102
144 0 110
136 0 119
127 0 127
119 0 136
110 0 144
102 0 153
93 0 161
85 0 170
76 0 178
68 0 187
59 0 195
51 0 204
42 0 212
34 0 221
25 0 229
17 0 238
8 0 246
255 0 0
246 0 8
238 0 17
229 0 25
221 0 34
212 0 42
204 0 51
195 0 59
187 0 68
178 0 76
170 0 85
161 0 93
153 0 102
144 0 110
136 0 119
127 0 127
119 0 136
110 0 144
102 0 153
93 0 161
85 0 170
76 0 178
68 0 187
59 0 195
51 0 204
42 0 212
34 0 221
25 0 229
17 0 238
8 0 246
255 0 0
246 0 8
238 0 17
229 0 25
221 0 34
212 0 42
204 0 51
195 0 59
187 0 68
178 0 76
170 0 85
161 0 93
153 0 102
144 0 110
136 0 119
127 0 127
119 0 136
110 0 144
102 0 153
93 0 161
85 0 170
76 0 178
68 0 187
59 0 195
51 0 204
42 0 212
34 0 221
25 0 229
17 0 238
8 0 246
255 0 0
246 0 8
238 0 17
229 0 25
221 0 34
212 0 42
204 0 51
195 0 59
187 0 68
178 0 76
170 0 85
161 0 93
153 0 102
144 0 110
136 0 119
127 0 127
119 0 136
110 0 144
102 0 153
93 0 161
85 0 170
76 0 178
68 0 187
59 0 195
51 0 204
42 0 212
34 0 221
25 0 229
17 0 238
8 0 246
255 0 0
246 0 8
238 0 17
229 0 25
221 0 34
212 0 42
204 0 51
195 0 59
187 0 68
178 0 76
170 0 85
161 0 93
153 0 102
144 0 110
136 0 119
127 0 127
119 0 136
110 0 144
102 0 153
93 0 161
85 0 170
76 0 178
68 0 187
59 0 195
51 0 204
42 0 212
34 0 221
25 0 229
17 0 238
8 0 246
